<mxfile host="app.diagrams.net" modified="2023-12-07T08:07:22.055Z" agent="Mozilla/5.0 (Windows NT 10.0; Win64; x64) AppleWebKit/537.36 (KHTML, like Gecko) Chrome/119.0.0.0 Safari/537.36 Edg/119.0.0.0" etag="yVs8US4Md_qbhYx6XWFi" version="22.1.7" type="device">
  <diagram id="GTNDM5GmYxLon-XQoKPh" name="Page-1">
    <mxGraphModel dx="706" dy="376" grid="1" gridSize="10" guides="1" tooltips="1" connect="1" arrows="1" fold="1" page="1" pageScale="1" pageWidth="850" pageHeight="1100" math="0" shadow="0">
      <root>
        <mxCell id="0" />
        <mxCell id="1" parent="0" />
        <mxCell id="uxVeRAbOKWMjpfDk3HL7-1" value="&lt;p style=&quot;margin:0px;margin-top:4px;text-align:center;&quot;&gt;&lt;b&gt;Products&lt;/b&gt;&lt;/p&gt;&lt;hr size=&quot;1&quot;&gt;&lt;p style=&quot;margin:0px;margin-left:4px;&quot;&gt;_id: objectId&lt;/p&gt;&lt;p style=&quot;margin:0px;margin-left:4px;&quot;&gt;name: String&lt;/p&gt;&lt;p style=&quot;margin:0px;margin-left:4px;&quot;&gt;description: String&lt;/p&gt;&lt;p style=&quot;margin:0px;margin-left:4px;&quot;&gt;category: objectId&lt;/p&gt;&lt;p style=&quot;margin:0px;margin-left:4px;&quot;&gt;brand: objectId&lt;/p&gt;&lt;p style=&quot;margin:0px;margin-left:4px;&quot;&gt;collectionId: objectId&lt;/p&gt;&lt;p style=&quot;margin:0px;margin-left:4px;&quot;&gt;price: Number&lt;/p&gt;&lt;p style=&quot;margin:0px;margin-left:4px;&quot;&gt;Images: Array&lt;/p&gt;&lt;p style=&quot;margin:0px;margin-left:4px;&quot;&gt;createdAt: Datetime&lt;/p&gt;&lt;p style=&quot;margin:0px;margin-left:4px;&quot;&gt;updatedAt: Datetime&lt;/p&gt;&lt;hr size=&quot;1&quot;&gt;&lt;p style=&quot;border-color: var(--border-color); margin: 0px 0px 0px 4px;&quot;&gt;createProduct()&lt;/p&gt;&lt;p style=&quot;border-color: var(--border-color); margin: 0px 0px 0px 4px;&quot;&gt;updateProduct()&lt;/p&gt;&lt;p style=&quot;border-color: var(--border-color); margin: 0px 0px 0px 4px;&quot;&gt;deleteProduct()&lt;/p&gt;&lt;p style=&quot;border-color: var(--border-color); margin: 0px 0px 0px 4px;&quot;&gt;getProduct()&lt;/p&gt;" style="verticalAlign=top;align=left;overflow=fill;fontSize=12;fontFamily=Helvetica;html=1;whiteSpace=wrap;" parent="1" vertex="1">
          <mxGeometry x="480" y="490" width="170" height="270" as="geometry" />
        </mxCell>
        <mxCell id="uxVeRAbOKWMjpfDk3HL7-2" value="&lt;p style=&quot;margin:0px;margin-top:4px;text-align:center;&quot;&gt;&lt;b&gt;Brands&lt;/b&gt;&lt;/p&gt;&lt;hr size=&quot;1&quot;&gt;&lt;p style=&quot;margin:0px;margin-left:4px;&quot;&gt;_id: objectId&lt;/p&gt;&lt;p style=&quot;margin:0px;margin-left:4px;&quot;&gt;name: String&lt;/p&gt;&lt;p style=&quot;margin:0px;margin-left:4px;&quot;&gt;posittion: Number&lt;/p&gt;&lt;p style=&quot;margin:0px;margin-left:4px;&quot;&gt;createdAt: Datetime&lt;/p&gt;&lt;p style=&quot;margin:0px;margin-left:4px;&quot;&gt;updatedAt: Datetime&lt;/p&gt;&lt;hr size=&quot;1&quot;&gt;&lt;p style=&quot;margin:0px;margin-left:4px;&quot;&gt;createBrand()&lt;/p&gt;&lt;p style=&quot;margin:0px;margin-left:4px;&quot;&gt;updateBrand()&lt;/p&gt;&lt;p style=&quot;margin:0px;margin-left:4px;&quot;&gt;deleteBrand()&lt;/p&gt;&lt;p style=&quot;margin:0px;margin-left:4px;&quot;&gt;getBrand()&lt;/p&gt;" style="verticalAlign=top;align=left;overflow=fill;fontSize=12;fontFamily=Helvetica;html=1;whiteSpace=wrap;" parent="1" vertex="1">
          <mxGeometry x="230" y="260" width="130" height="180" as="geometry" />
        </mxCell>
        <mxCell id="uxVeRAbOKWMjpfDk3HL7-3" value="&lt;p style=&quot;margin:0px;margin-top:4px;text-align:center;&quot;&gt;&lt;b&gt;Categories&lt;/b&gt;&lt;/p&gt;&lt;hr size=&quot;1&quot;&gt;&lt;p style=&quot;margin:0px;margin-left:4px;&quot;&gt;_id: objectId&lt;/p&gt;&lt;p style=&quot;margin:0px;margin-left:4px;&quot;&gt;name: String&lt;/p&gt;&lt;p style=&quot;margin:0px;margin-left:4px;&quot;&gt;parentCategory: objectId&lt;/p&gt;&lt;p style=&quot;margin:0px;margin-left:4px;&quot;&gt;posittion: Number&lt;br&gt;&lt;/p&gt;&lt;p style=&quot;margin:0px;margin-left:4px;&quot;&gt;createdAt: Datetime&lt;/p&gt;&lt;p style=&quot;margin:0px;margin-left:4px;&quot;&gt;updatedAt: Datetime&lt;/p&gt;&lt;hr size=&quot;1&quot;&gt;&lt;p style=&quot;border-color: var(--border-color); margin: 0px 0px 0px 4px;&quot;&gt;createCategory()&lt;/p&gt;&lt;p style=&quot;border-color: var(--border-color); margin: 0px 0px 0px 4px;&quot;&gt;updateCategory()&lt;/p&gt;&lt;p style=&quot;border-color: var(--border-color); margin: 0px 0px 0px 4px;&quot;&gt;deleteCategory()&lt;/p&gt;&lt;p style=&quot;border-color: var(--border-color); margin: 0px 0px 0px 4px;&quot;&gt;getCategory()&lt;/p&gt;" style="verticalAlign=top;align=left;overflow=fill;fontSize=12;fontFamily=Helvetica;html=1;whiteSpace=wrap;" parent="1" vertex="1">
          <mxGeometry x="230" y="480" width="160" height="200" as="geometry" />
        </mxCell>
        <mxCell id="uxVeRAbOKWMjpfDk3HL7-4" value="&lt;p style=&quot;margin:0px;margin-top:4px;text-align:center;&quot;&gt;&lt;b&gt;Collections&lt;/b&gt;&lt;/p&gt;&lt;hr size=&quot;1&quot;&gt;&lt;p style=&quot;margin:0px;margin-left:4px;&quot;&gt;_id: objectId&lt;/p&gt;&lt;p style=&quot;margin:0px;margin-left:4px;&quot;&gt;name: String&lt;/p&gt;&lt;p style=&quot;margin:0px;margin-left:4px;&quot;&gt;createdAt: Datetime&lt;/p&gt;&lt;p style=&quot;margin:0px;margin-left:4px;&quot;&gt;updatedAt: Datetime&lt;/p&gt;&lt;hr size=&quot;1&quot;&gt;&lt;p style=&quot;border-color: var(--border-color); margin: 0px 0px 0px 4px;&quot;&gt;createCollection()&lt;/p&gt;&lt;p style=&quot;border-color: var(--border-color); margin: 0px 0px 0px 4px;&quot;&gt;updateCollection()&lt;/p&gt;&lt;p style=&quot;border-color: var(--border-color); margin: 0px 0px 0px 4px;&quot;&gt;deleteCollection()&lt;/p&gt;&lt;p style=&quot;border-color: var(--border-color); margin: 0px 0px 0px 4px;&quot;&gt;getCollection()&lt;/p&gt;" style="verticalAlign=top;align=left;overflow=fill;fontSize=12;fontFamily=Helvetica;html=1;whiteSpace=wrap;" parent="1" vertex="1">
          <mxGeometry x="230" y="720" width="150" height="170" as="geometry" />
        </mxCell>
        <mxCell id="uxVeRAbOKWMjpfDk3HL7-5" value="&lt;p style=&quot;margin:0px;margin-top:4px;text-align:center;&quot;&gt;&lt;b&gt;ColorProducts&lt;/b&gt;&lt;/p&gt;&lt;hr size=&quot;1&quot;&gt;&lt;p style=&quot;margin:0px;margin-left:4px;&quot;&gt;_id: objectId&lt;/p&gt;&lt;p style=&quot;margin:0px;margin-left:4px;&quot;&gt;name: String&lt;/p&gt;&lt;p style=&quot;margin:0px;margin-left:4px;&quot;&gt;createdAt: Datetime&lt;/p&gt;&lt;p style=&quot;margin:0px;margin-left:4px;&quot;&gt;updatedAt: Datetime&lt;/p&gt;&lt;hr size=&quot;1&quot;&gt;&lt;p style=&quot;margin:0px;margin-left:4px;&quot;&gt;&lt;span style=&quot;background-color: initial;&quot;&gt;getColor()&lt;/span&gt;&lt;br&gt;&lt;/p&gt;" style="verticalAlign=top;align=left;overflow=fill;fontSize=12;fontFamily=Helvetica;html=1;whiteSpace=wrap;" parent="1" vertex="1">
          <mxGeometry x="1035" y="750" width="110" height="140" as="geometry" />
        </mxCell>
        <mxCell id="uxVeRAbOKWMjpfDk3HL7-6" value="&lt;p style=&quot;margin:0px;margin-top:4px;text-align:center;&quot;&gt;&lt;b&gt;SizeProducts&lt;/b&gt;&lt;/p&gt;&lt;hr size=&quot;1&quot;&gt;&lt;p style=&quot;margin:0px;margin-left:4px;&quot;&gt;_id: objectId&lt;/p&gt;&lt;p style=&quot;margin:0px;margin-left:4px;&quot;&gt;name: String&lt;/p&gt;&lt;p style=&quot;margin:0px;margin-left:4px;&quot;&gt;createdAt: Datetime&lt;/p&gt;&lt;p style=&quot;margin:0px;margin-left:4px;&quot;&gt;updatedAt: Datetime&lt;/p&gt;&lt;hr size=&quot;1&quot;&gt;&lt;p style=&quot;margin:0px;margin-left:4px;&quot;&gt;getSize()&lt;/p&gt;" style="verticalAlign=top;align=left;overflow=fill;fontSize=12;fontFamily=Helvetica;html=1;whiteSpace=wrap;" parent="1" vertex="1">
          <mxGeometry x="1035" y="530" width="140" height="130" as="geometry" />
        </mxCell>
        <mxCell id="uxVeRAbOKWMjpfDk3HL7-7" value="&lt;p style=&quot;margin:0px;margin-top:4px;text-align:center;&quot;&gt;&lt;b&gt;VariantProducts&lt;/b&gt;&lt;/p&gt;&lt;hr size=&quot;1&quot;&gt;&lt;p style=&quot;margin:0px;margin-left:4px;&quot;&gt;_id: objectId&lt;/p&gt;&lt;p style=&quot;margin:0px;margin-left:4px;&quot;&gt;productId: objectId&lt;/p&gt;&lt;p style=&quot;margin:0px;margin-left:4px;&quot;&gt;sizeId: objectId&lt;/p&gt;&lt;p style=&quot;margin:0px;margin-left:4px;&quot;&gt;colorId: objectId&lt;/p&gt;&lt;p style=&quot;margin:0px;margin-left:4px;&quot;&gt;quantity: Number&lt;/p&gt;&lt;p style=&quot;margin:0px;margin-left:4px;&quot;&gt;createdAt: Datetime&lt;/p&gt;&lt;p style=&quot;margin:0px;margin-left:4px;&quot;&gt;updatedAt: Datetime&lt;/p&gt;&lt;hr size=&quot;1&quot;&gt;&lt;p style=&quot;margin:0px;margin-left:4px;&quot;&gt;createVariant()&lt;/p&gt;&lt;p style=&quot;margin:0px;margin-left:4px;&quot;&gt;updateVariant()&lt;/p&gt;&lt;p style=&quot;margin:0px;margin-left:4px;&quot;&gt;deleteVariant()&lt;/p&gt;&lt;p style=&quot;margin:0px;margin-left:4px;&quot;&gt;getVariant()&lt;/p&gt;" style="verticalAlign=top;align=left;overflow=fill;fontSize=12;fontFamily=Helvetica;html=1;whiteSpace=wrap;" parent="1" vertex="1">
          <mxGeometry x="770" y="600" width="150" height="220" as="geometry" />
        </mxCell>
        <mxCell id="uxVeRAbOKWMjpfDk3HL7-8" value="&lt;p style=&quot;margin:0px;margin-top:4px;text-align:center;&quot;&gt;&lt;b&gt;Users&lt;/b&gt;&lt;/p&gt;&lt;hr size=&quot;1&quot;&gt;&lt;p style=&quot;margin:0px;margin-left:4px;&quot;&gt;_id: objectId&lt;/p&gt;&lt;p style=&quot;margin:0px;margin-left:4px;&quot;&gt;username: String&lt;/p&gt;&lt;p style=&quot;margin:0px;margin-left:4px;&quot;&gt;email: String&lt;/p&gt;&lt;p style=&quot;margin:0px;margin-left:4px;&quot;&gt;password: String&lt;/p&gt;&lt;p style=&quot;margin:0px;margin-left:4px;&quot;&gt;role: Number&lt;/p&gt;&lt;p style=&quot;margin:0px;margin-left:4px;&quot;&gt;avatar: Object&lt;/p&gt;&lt;p style=&quot;margin:0px;margin-left:4px;&quot;&gt;createdAt: Datetime&lt;/p&gt;&lt;p style=&quot;margin:0px;margin-left:4px;&quot;&gt;updatedAt: Datetime&lt;/p&gt;&lt;hr size=&quot;1&quot;&gt;&lt;p style=&quot;border-color: var(--border-color); margin: 0px 0px 0px 4px;&quot;&gt;createUser()&lt;/p&gt;&lt;p style=&quot;border-color: var(--border-color); margin: 0px 0px 0px 4px;&quot;&gt;updateUser()&lt;/p&gt;&lt;p style=&quot;border-color: var(--border-color); margin: 0px 0px 0px 4px;&quot;&gt;deleteUser()&lt;/p&gt;&lt;p style=&quot;border-color: var(--border-color); margin: 0px 0px 0px 4px;&quot;&gt;getUser()&lt;/p&gt;&lt;p style=&quot;border-color: var(--border-color); margin: 0px 0px 0px 4px;&quot;&gt;changePassword()&lt;/p&gt;&lt;p style=&quot;border-color: var(--border-color); margin: 0px 0px 0px 4px;&quot;&gt;fogotPassword()&lt;/p&gt;&lt;p style=&quot;border-color: var(--border-color); margin: 0px 0px 0px 4px;&quot;&gt;Login()&lt;/p&gt;&lt;p style=&quot;border-color: var(--border-color); margin: 0px 0px 0px 4px;&quot;&gt;Logout()&lt;/p&gt;" style="verticalAlign=top;align=left;overflow=fill;fontSize=12;fontFamily=Helvetica;html=1;whiteSpace=wrap;" parent="1" vertex="1">
          <mxGeometry x="770" y="250" width="160" height="280" as="geometry" />
        </mxCell>
        <mxCell id="uxVeRAbOKWMjpfDk3HL7-9" value="&lt;p style=&quot;margin:0px;margin-top:4px;text-align:center;&quot;&gt;&lt;b&gt;Carts&lt;/b&gt;&lt;/p&gt;&lt;hr size=&quot;1&quot;&gt;&lt;p style=&quot;margin:0px;margin-left:4px;&quot;&gt;_id: objectId&lt;/p&gt;&lt;p style=&quot;margin:0px;margin-left:4px;&quot;&gt;user: objectId&lt;/p&gt;&lt;p style=&quot;margin:0px;margin-left:4px;&quot;&gt;cartItems: Array&lt;br&gt;&lt;/p&gt;&lt;p style=&quot;margin:0px;margin-left:4px;&quot;&gt;createdAt: Datetime&lt;/p&gt;&lt;p style=&quot;margin:0px;margin-left:4px;&quot;&gt;updatedAt: Datetime&lt;/p&gt;&lt;hr size=&quot;1&quot;&gt;&lt;p style=&quot;margin:0px;margin-left:4px;&quot;&gt;addItemToCart()&lt;/p&gt;&lt;p style=&quot;margin:0px;margin-left:4px;&quot;&gt;updateCartItem()&lt;/p&gt;&lt;p style=&quot;margin:0px;margin-left:4px;&quot;&gt;deleteItemFromCart()&lt;/p&gt;&lt;p style=&quot;margin:0px;margin-left:4px;&quot;&gt;getCartItem()&lt;/p&gt;" style="verticalAlign=top;align=left;overflow=fill;fontSize=12;fontFamily=Helvetica;html=1;whiteSpace=wrap;" parent="1" vertex="1">
          <mxGeometry x="1030" y="290" width="150" height="180" as="geometry" />
        </mxCell>
        <mxCell id="uxVeRAbOKWMjpfDk3HL7-10" value="&lt;p style=&quot;margin:0px;margin-top:4px;text-align:center;&quot;&gt;&lt;b&gt;Orders&lt;/b&gt;&lt;/p&gt;&lt;hr size=&quot;1&quot;&gt;&lt;p style=&quot;margin:0px;margin-left:4px;&quot;&gt;_id: objectId&lt;/p&gt;&lt;p style=&quot;margin:0px;margin-left:4px;&quot;&gt;name: String&lt;/p&gt;&lt;p style=&quot;margin:0px;margin-left:4px;&quot;&gt;user: objectId&lt;/p&gt;&lt;p style=&quot;margin:0px;margin-left:4px;&quot;&gt;orderItems: Array&lt;/p&gt;&lt;p style=&quot;margin:0px;margin-left:4px;&quot;&gt;address: String&lt;/p&gt;&lt;p style=&quot;margin:0px;margin-left:4px;&quot;&gt;phone: String&lt;/p&gt;&lt;p style=&quot;margin:0px;margin-left:4px;&quot;&gt;paymentMethod: String&lt;/p&gt;&lt;p style=&quot;margin:0px;margin-left:4px;&quot;&gt;status: Number&lt;/p&gt;&lt;p style=&quot;margin:0px;margin-left:4px;&quot;&gt;totalPrice: Number&lt;/p&gt;&lt;p style=&quot;margin:0px;margin-left:4px;&quot;&gt;createdAt: Datetime&lt;/p&gt;&lt;p style=&quot;margin:0px;margin-left:4px;&quot;&gt;updatedAt: Datetime&lt;/p&gt;&lt;hr size=&quot;1&quot;&gt;&lt;p style=&quot;border-color: var(--border-color); margin: 0px 0px 0px 4px;&quot;&gt;createOrders()&lt;/p&gt;&lt;p style=&quot;border-color: var(--border-color); margin: 0px 0px 0px 4px;&quot;&gt;updateOrders()&lt;/p&gt;&lt;p style=&quot;border-color: var(--border-color); margin: 0px 0px 0px 4px;&quot;&gt;deleteOrders()&lt;/p&gt;&lt;p style=&quot;border-color: var(--border-color); margin: 0px 0px 0px 4px;&quot;&gt;getOrder()&lt;/p&gt;" style="verticalAlign=top;align=left;overflow=fill;fontSize=12;fontFamily=Helvetica;html=1;whiteSpace=wrap;" parent="1" vertex="1">
          <mxGeometry x="485" y="180" width="160" height="270" as="geometry" />
        </mxCell>
        <mxCell id="uu0wLGDzeg-8mo9s6WGM-1" value="&lt;p style=&quot;margin:0px;margin-top:4px;text-align:center;&quot;&gt;&lt;b&gt;WareHouses&lt;/b&gt;&lt;/p&gt;&lt;hr size=&quot;1&quot;&gt;&lt;p style=&quot;margin:0px;margin-left:4px;&quot;&gt;_id: objectId&lt;/p&gt;&lt;p style=&quot;margin:0px;margin-left:4px;&quot;&gt;variantProduct: objectId&lt;/p&gt;&lt;p style=&quot;margin:0px;margin-left:4px;&quot;&gt;quantity: Number&lt;/p&gt;&lt;p style=&quot;margin:0px;margin-left:4px;&quot;&gt;type: String&lt;/p&gt;&lt;p style=&quot;margin:0px;margin-left:4px;&quot;&gt;createdAt: Datetime&lt;/p&gt;&lt;p style=&quot;margin:0px;margin-left:4px;&quot;&gt;updatedAt: Datetime&lt;/p&gt;&lt;hr size=&quot;1&quot;&gt;&lt;p style=&quot;margin:0px;margin-left:4px;&quot;&gt;importToWareHouse()&lt;/p&gt;&lt;p style=&quot;margin:0px;margin-left:4px;&quot;&gt;exportFromWareHouse()&lt;/p&gt;" style="verticalAlign=top;align=left;overflow=fill;fontSize=12;fontFamily=Helvetica;html=1;whiteSpace=wrap;" parent="1" vertex="1">
          <mxGeometry x="480" y="800" width="150" height="170" as="geometry" />
        </mxCell>
        <mxCell id="uu0wLGDzeg-8mo9s6WGM-2" value="" style="edgeStyle=entityRelationEdgeStyle;fontSize=12;html=1;endArrow=ERmandOne;startArrow=ERmandOne;rounded=0;entryX=0;entryY=0.5;entryDx=0;entryDy=0;exitX=1;exitY=0.25;exitDx=0;exitDy=0;" parent="1" source="uxVeRAbOKWMjpfDk3HL7-8" target="uxVeRAbOKWMjpfDk3HL7-9" edge="1">
          <mxGeometry width="100" height="100" relative="1" as="geometry">
            <mxPoint x="940" y="450" as="sourcePoint" />
            <mxPoint x="870" y="330" as="targetPoint" />
          </mxGeometry>
        </mxCell>
        <mxCell id="uu0wLGDzeg-8mo9s6WGM-11" value="" style="edgeStyle=entityRelationEdgeStyle;fontSize=12;html=1;endArrow=ERzeroToMany;endFill=1;startArrow=ERzeroToMany;rounded=0;exitX=1.008;exitY=0.627;exitDx=0;exitDy=0;exitPerimeter=0;entryX=-0.027;entryY=0.569;entryDx=0;entryDy=0;entryPerimeter=0;" parent="1" source="uxVeRAbOKWMjpfDk3HL7-7" target="uxVeRAbOKWMjpfDk3HL7-6" edge="1">
          <mxGeometry width="100" height="100" relative="1" as="geometry">
            <mxPoint x="1020" y="810" as="sourcePoint" />
            <mxPoint x="1120" y="710" as="targetPoint" />
            <Array as="points">
              <mxPoint x="1070" y="840" />
            </Array>
          </mxGeometry>
        </mxCell>
        <mxCell id="uu0wLGDzeg-8mo9s6WGM-12" value="" style="edgeStyle=entityRelationEdgeStyle;fontSize=12;html=1;endArrow=ERzeroToMany;endFill=1;startArrow=ERzeroToMany;rounded=0;exitX=1;exitY=0.75;exitDx=0;exitDy=0;entryX=0;entryY=0.25;entryDx=0;entryDy=0;" parent="1" source="uxVeRAbOKWMjpfDk3HL7-7" target="uxVeRAbOKWMjpfDk3HL7-5" edge="1">
          <mxGeometry width="100" height="100" relative="1" as="geometry">
            <mxPoint x="899.8" y="900.06" as="sourcePoint" />
            <mxPoint x="994.8" y="1006.06" as="targetPoint" />
            <Array as="points">
              <mxPoint x="1038.8" y="922.06" />
              <mxPoint x="970" y="940" />
              <mxPoint x="920" y="970" />
            </Array>
          </mxGeometry>
        </mxCell>
        <mxCell id="uu0wLGDzeg-8mo9s6WGM-13" value="" style="edgeStyle=entityRelationEdgeStyle;fontSize=12;html=1;endArrow=ERzeroToMany;endFill=1;startArrow=ERzeroToMany;rounded=0;exitX=0.999;exitY=0.15;exitDx=0;exitDy=0;exitPerimeter=0;entryX=0;entryY=0.75;entryDx=0;entryDy=0;" parent="1" source="uxVeRAbOKWMjpfDk3HL7-7" target="uxVeRAbOKWMjpfDk3HL7-9" edge="1">
          <mxGeometry width="100" height="100" relative="1" as="geometry">
            <mxPoint x="924.78" y="704.03" as="sourcePoint" />
            <mxPoint x="1054.78" y="600.03" as="targetPoint" />
            <Array as="points">
              <mxPoint x="1063.78" y="726.03" />
            </Array>
          </mxGeometry>
        </mxCell>
        <mxCell id="uu0wLGDzeg-8mo9s6WGM-14" value="" style="edgeStyle=entityRelationEdgeStyle;fontSize=12;html=1;endArrow=ERzeroToMany;startArrow=ERzeroToOne;rounded=0;exitX=1;exitY=0.25;exitDx=0;exitDy=0;" parent="1" source="uxVeRAbOKWMjpfDk3HL7-3" target="uxVeRAbOKWMjpfDk3HL7-1" edge="1">
          <mxGeometry width="100" height="100" relative="1" as="geometry">
            <mxPoint x="540" y="718" as="sourcePoint" />
            <mxPoint x="470" y="383.0000000000002" as="targetPoint" />
            <Array as="points">
              <mxPoint x="440" y="570" />
            </Array>
          </mxGeometry>
        </mxCell>
        <mxCell id="uu0wLGDzeg-8mo9s6WGM-17" value="" style="edgeStyle=entityRelationEdgeStyle;fontSize=12;html=1;endArrow=ERzeroToMany;startArrow=ERzeroToOne;rounded=0;exitX=0.998;exitY=0.664;exitDx=0;exitDy=0;exitPerimeter=0;entryX=0;entryY=0.5;entryDx=0;entryDy=0;" parent="1" source="uxVeRAbOKWMjpfDk3HL7-1" target="uxVeRAbOKWMjpfDk3HL7-7" edge="1">
          <mxGeometry width="100" height="100" relative="1" as="geometry">
            <mxPoint x="720" y="720" as="sourcePoint" />
            <mxPoint x="820" y="620" as="targetPoint" />
          </mxGeometry>
        </mxCell>
        <mxCell id="uu0wLGDzeg-8mo9s6WGM-18" value="" style="edgeStyle=entityRelationEdgeStyle;fontSize=12;html=1;endArrow=ERzeroToMany;startArrow=ERzeroToOne;rounded=0;exitX=1;exitY=0.5;exitDx=0;exitDy=0;entryX=0;entryY=0.25;entryDx=0;entryDy=0;" parent="1" source="uxVeRAbOKWMjpfDk3HL7-2" target="uxVeRAbOKWMjpfDk3HL7-1" edge="1">
          <mxGeometry width="100" height="100" relative="1" as="geometry">
            <mxPoint x="520" y="320" as="sourcePoint" />
            <mxPoint x="600" y="455" as="targetPoint" />
            <Array as="points">
              <mxPoint x="560" y="390" />
            </Array>
          </mxGeometry>
        </mxCell>
        <mxCell id="uu0wLGDzeg-8mo9s6WGM-19" value="" style="edgeStyle=entityRelationEdgeStyle;fontSize=12;html=1;endArrow=ERzeroToMany;startArrow=ERzeroToOne;rounded=0;exitX=0.989;exitY=0.436;exitDx=0;exitDy=0;exitPerimeter=0;entryX=0.01;entryY=0.658;entryDx=0;entryDy=0;entryPerimeter=0;" parent="1" source="uu0wLGDzeg-8mo9s6WGM-1" target="uxVeRAbOKWMjpfDk3HL7-7" edge="1">
          <mxGeometry width="100" height="100" relative="1" as="geometry">
            <mxPoint x="700" y="909.72" as="sourcePoint" />
            <mxPoint x="860" y="990.72" as="targetPoint" />
          </mxGeometry>
        </mxCell>
        <mxCell id="uu0wLGDzeg-8mo9s6WGM-20" value="" style="edgeStyle=entityRelationEdgeStyle;fontSize=12;html=1;endArrow=ERzeroToMany;startArrow=ERzeroToOne;rounded=0;exitX=1;exitY=0.25;exitDx=0;exitDy=0;entryX=0;entryY=0.682;entryDx=0;entryDy=0;entryPerimeter=0;" parent="1" source="uxVeRAbOKWMjpfDk3HL7-4" target="uxVeRAbOKWMjpfDk3HL7-1" edge="1">
          <mxGeometry width="100" height="100" relative="1" as="geometry">
            <mxPoint x="680" y="212.5" as="sourcePoint" />
            <mxPoint x="780" y="450.5" as="targetPoint" />
            <Array as="points">
              <mxPoint x="810" y="312.5" />
            </Array>
          </mxGeometry>
        </mxCell>
        <mxCell id="uu0wLGDzeg-8mo9s6WGM-21" value="" style="edgeStyle=entityRelationEdgeStyle;fontSize=12;html=1;endArrow=ERzeroToMany;startArrow=ERzeroToOne;rounded=0;exitX=0;exitY=0.25;exitDx=0;exitDy=0;entryX=1;entryY=0.25;entryDx=0;entryDy=0;" parent="1" source="uxVeRAbOKWMjpfDk3HL7-8" target="uxVeRAbOKWMjpfDk3HL7-10" edge="1">
          <mxGeometry width="100" height="100" relative="1" as="geometry">
            <mxPoint x="950" y="425" as="sourcePoint" />
            <mxPoint x="1030" y="550" as="targetPoint" />
            <Array as="points">
              <mxPoint x="990" y="495" />
            </Array>
          </mxGeometry>
        </mxCell>
        <mxCell id="uu0wLGDzeg-8mo9s6WGM-22" value="" style="edgeStyle=entityRelationEdgeStyle;fontSize=12;html=1;endArrow=ERzeroToMany;endFill=1;startArrow=ERzeroToMany;rounded=0;exitX=1;exitY=0.75;exitDx=0;exitDy=0;entryX=0;entryY=0.25;entryDx=0;entryDy=0;" parent="1" source="uxVeRAbOKWMjpfDk3HL7-10" target="uxVeRAbOKWMjpfDk3HL7-7" edge="1">
          <mxGeometry width="100" height="100" relative="1" as="geometry">
            <mxPoint x="880" y="570" as="sourcePoint" />
            <mxPoint x="980" y="470" as="targetPoint" />
            <Array as="points">
              <mxPoint x="820" y="530" />
            </Array>
          </mxGeometry>
        </mxCell>
      </root>
    </mxGraphModel>
  </diagram>
</mxfile>
